<?xml version="1.0" encoding="UTF-8" standalone="no"?>
<!-- Created with Inkscape (http://www.inkscape.org/) -->

<svg
   xmlns:dc="http://purl.org/dc/elements/1.1/"
   xmlns:cc="http://creativecommons.org/ns#"
   xmlns:rdf="http://www.w3.org/1999/02/22-rdf-syntax-ns#"
   xmlns:svg="http://www.w3.org/2000/svg"
   xmlns="http://www.w3.org/2000/svg"
   xmlns:sodipodi="http://sodipodi.sourceforge.net/DTD/sodipodi-0.dtd"
   xmlns:inkscape="http://www.inkscape.org/namespaces/inkscape"
   id="svg2"
   version="1.1"
   inkscape:version="0.48.4 r9939"
   width="477.06"
   height="290.91"
   xml:space="preserve"
   sodipodi:docname="AMREF_Logo_FD_RGB_aufweiss+greige.ai"><metadata
     id="metadata8"><rdf:RDF><cc:Work
         rdf:about=""><dc:format>image/svg+xml</dc:format><dc:type
           rdf:resource="http://purl.org/dc/dcmitype/StillImage" /><dc:title></dc:title></cc:Work></rdf:RDF></metadata><defs
     id="defs6"><clipPath
       clipPathUnits="userSpaceOnUse"
       id="clipPath18"><path
         d="m 0,365.669 490.961,0 L 490.961,0 0,0 0,365.669 z"
         id="path20"
         inkscape:connector-curvature="0" /></clipPath></defs><sodipodi:namedview
     pagecolor="#ffffff"
     bordercolor="#666666"
     borderopacity="1"
     objecttolerance="10"
     gridtolerance="10"
     guidetolerance="10"
     inkscape:pageopacity="0"
     inkscape:pageshadow="2"
     inkscape:window-width="1680"
     inkscape:window-height="990"
     id="namedview4"
     showgrid="false"
     fit-margin-top="0"
     fit-margin-left="0"
     fit-margin-right="0"
     fit-margin-bottom="0"
     inkscape:zoom="1.55"
     inkscape:cx="228.52736"
     inkscape:cy="135.45402"
     inkscape:window-x="-4"
     inkscape:window-y="-4"
     inkscape:window-maximized="1"
     inkscape:current-layer="g10" /><g
     id="g10"
     inkscape:groupmode="layer"
     inkscape:label="AMREF_Logo_FD_RGB_aufweiss+greige"
     transform="matrix(1.25,0,0,-1.25,-142.0439,433.17222)"><g
       id="g14"
       transform="matrix(1.1858071,0,0,1.1858071,13.36706,13.367125)"><g
         id="g16"
         clip-path="url(#clipPath18)"><g
           id="g22"
           transform="translate(235.525,141.3289)"><path
             d="M 0,0 C 1.341,2.511 1.305,5.861 1.556,9.811 1.361,9.843 1.236,10.052 1.243,9.655 1.134,5.586 1.072,2.871 -0.312,0.467 c -3.124,-5.409 -12.716,-5.174 -14.787,-11.362 -1.112,-3.323 0.534,-6.73 1.402,-9.804 -1.9,-1.711 -4.377,-2.951 -6.071,-4.826 -2.868,-3.17 -4.91,-7.621 -7.781,-11.363 -3.818,-4.967 -8.391,-10.538 -16.5,-10.428 -6.996,0.095 -9.338,5.738 -11.674,10.896 -1.485,3.276 -2.687,6.277 -3.581,9.806 -1.309,5.171 -0.988,12.081 -2.334,17.279 -0.491,1.892 -1.222,3.582 -1.246,5.446 -0.076,6.369 4.374,8.752 4.203,14.942 -0.227,8.293 -6.317,12.801 -8.249,20.701 -1.119,4.58 -0.34,9.5 -0.778,14.476 -0.456,5.179 -3.212,10.801 -7.783,11.363 -2.598,0.319 -4.628,-1.002 -6.692,-0.777 -1.622,0.176 -3.515,1.831 -4.981,2.957 -1.575,1.203 -2.839,2.702 -4.825,3.112 -3.492,0.722 -7.284,-0.853 -10.274,-2.177 -3.122,-1.389 -6.377,-2.88 -9.651,-3.115 -7.354,-0.525 -11.768,1.73 -15.72,5.604 -2.069,2.027 -7.876,6.07 -8.56,9.027 -0.838,3.619 1.54,6.855 1.09,10.895 -0.256,2.291 -1.392,3.504 -1.402,5.604 -0.011,2.669 1.331,6.131 2.647,8.247 0.862,1.395 2.771,3.327 4.203,4.05 1.02,0.517 2.412,0.628 3.423,1.247 3.699,2.248 3.974,7.735 5.604,12.138 1.307,3.531 3.377,7.493 6.225,8.25 1.547,0.413 3.812,-0.172 5.759,0 5.663,0.5 10.754,3.726 16.031,5.759 2.24,0.86 5.284,1.764 8.562,2.336 3.05,0.527 7.989,1.012 8.872,-1.089 0.793,-1.889 -0.744,-4.54 -0.156,-6.54 1.153,-3.915 6.808,-3.072 10.74,-4.357 4.776,-1.56 6.738,-6.396 13.075,-4.672 -7.095,-0.474 -9.711,5.075 -14.474,6.227 -3.631,0.88 -6.724,-0.245 -7.629,2.49 -0.752,2.285 1.165,5.225 0.312,7.628 -0.88,2.487 -5.349,2.645 -8.716,2.336 -3.709,-0.339 -7.684,-1.918 -11.364,-3.27 -3.574,-1.31 -7.063,-3.001 -10.738,-3.266 -3.734,-0.272 -7.841,1.391 -11.207,0.463 -1.701,-0.466 -2.897,-2.234 -4.048,-3.579 -1.125,-1.31 -2.574,-2.734 -3.424,-4.2 -1.348,-2.333 -1.686,-5.746 -2.957,-7.938 -1.795,-3.101 -5.784,-3.549 -8.249,-5.295 -3.538,-2.504 -6.7,-8.505 -7.627,-13.073 -0.168,-0.83 -0.292,-1.761 -0.311,-2.647 -0.058,-2.618 0.979,-5.486 0.623,-8.405 -0.401,-3.264 -3.432,-4.836 -2.805,-8.873 0.369,-2.344 2.615,-4.624 3.894,-6.381 3.147,-4.328 6.033,-7.621 9.494,-11.361 2.297,-2.484 4.625,-5.146 8.25,-5.605 3.093,-0.39 5.899,0.836 9.184,0.779 3.11,-0.055 5.414,-1.764 7.937,-1.247 5.044,1.035 8.723,5.918 13.853,4.516 2.419,-0.661 3.32,-3.205 5.758,-4.203 2.295,-0.941 5.295,-0.642 7.161,-1.711 4.879,-2.799 -0.22,-8.455 0,-13.076 0.198,-4.153 4.427,-8.471 6.692,-11.674 2.176,-3.074 5.965,-8.041 5.603,-12.916 -0.365,-4.934 -6.02,-7.489 -5.913,-13.231 0.052,-2.807 1.776,-5.348 2.956,-7.475 1.29,-2.314 2.797,-4.539 3.735,-6.691 1.051,-2.404 1.457,-5.228 2.336,-8.094 0.814,-2.656 1.658,-5.422 2.489,-7.938 1.551,-4.681 3.608,-11.425 6.695,-14.163 3.198,-2.84 10.805,-2.424 15.566,-0.936 3.968,1.244 7.227,2.619 9.338,4.826 1.401,1.461 2.236,3.59 3.269,5.448 0.966,1.741 2.085,3.353 3.111,4.98 2.07,3.279 4.043,6.967 6.848,9.34 1.02,0.859 3.445,1.699 3.737,2.646 0.411,1.334 -0.567,3.553 -0.777,4.827 -0.27,1.619 -0.658,3.576 -0.157,5.292 0.713,2.433 3.722,4.395 6.227,5.911 C -4.482,-4.008 -1.314,-2.453 0,0"
             style="fill:#dc1212;fill-opacity:1;fill-rule:nonzero;stroke:none"
             id="path24"
             inkscape:connector-curvature="0" /></g><g
           id="g26"
           transform="translate(242.7399,130.4382)"><path
             d="m 0,0 c -1.969,0.311 -3.684,-1.171 -4.615,-2.718 -0.588,-0.974 -0.828,-2.445 -1.875,-3.029 -0.645,-0.359 -2.067,-0.197 -2.828,-0.243 -4.845,-0.294 0.347,-5.088 -3.073,-6.317 -0.318,-0.098 -0.351,-0.965 -0.352,-1.126 -0.016,-2.354 -0.308,-4.656 1.127,-6.7 1.681,-2.395 4.96,-3.525 7.352,-1.726 1.804,1.354 2.05,5.439 2.108,7.541 0.201,7.339 3.315,8.742 4.385,12.509 0.186,0.65 -0.417,-0.733 -0.814,-1.352 -4.013,-6.279 -4.836,-9.097 -4.536,-14.171 0.261,-4.42 -8.563,-6.603 -7.999,3.833 0.05,0.912 1.298,0.621 1.498,2.345 0.233,2.002 -0.765,2.638 0.939,3.95 1.287,0.587 2.64,0.306 4.403,2.113 1.605,1.646 2.067,5.276 5.151,4.789 C 1.72,-0.437 0.615,-0.097 0,0"
             style="fill:#dc1212;fill-opacity:1;fill-rule:nonzero;stroke:none"
             id="path28"
             inkscape:connector-curvature="0" /></g><g
           id="g30"
           transform="translate(218.5055,215.9324)"><path
             d="m 0,0 -3.938,0 c -8.369,0 -10.748,-1.969 -10.748,-5.579 0,-3.446 2.79,-5.497 7.63,-5.497 4.759,0 7.056,2.297 7.056,6.81 L 0,0 z m -5.989,-20.019 -2.216,0 c -10.501,0 -17.722,5.907 -17.722,14.03 0,7.876 5.743,13.865 21.989,13.865 l 3.856,0 0,0.575 c 0,6.235 -2.954,8.123 -9.517,8.123 -7.959,0 -12.389,-3.036 -14.03,-5.087 l -0.411,0 0,3.528 c 0,4.922 4.431,10.83 16.082,10.83 9.845,0 18.706,-4.595 18.706,-19.855 l 0,-10.174 c 0,-9.354 -6.892,-15.835 -16.737,-15.835"
             style="fill:#000000;fill-opacity:1;fill-rule:nonzero;stroke:none"
             id="path32"
             inkscape:connector-curvature="0" /></g><g
           id="g34"
           transform="translate(295.463,196.6516)"><path
             d="m 0,0 c -5.989,0 -8.368,2.79 -8.368,8.04 l 0,17.067 c 0,7.301 -3.282,10.419 -8.123,10.419 -4.431,0 -7.466,-3.118 -7.466,-9.189 l 0,-26.337 -2.954,0 c -4.841,0 -8.04,2.79 -8.04,8.04 l 0,17.067 c 0,7.301 -3.364,10.419 -8.205,10.419 -4.267,0 -7.466,-3.364 -7.466,-9.435 l 0,-26.091 -2.954,0 c -4.513,0 -7.959,2.954 -7.959,8.04 l 0,17.149 c 0,12.06 6.318,20.101 19.691,20.101 5.743,0 10.256,-2.626 13.456,-6.892 2.543,4.102 7.384,6.892 12.717,6.892 10.174,0 18.379,-6.154 18.379,-18.707 L 2.708,0 0,0 z"
             style="fill:#000000;fill-opacity:1;fill-rule:nonzero;stroke:none"
             id="path36"
             inkscape:connector-curvature="0" /></g><g
           id="g38"
           transform="translate(329.838,230.2088)"><path
             d="m 0,0 c -1.642,0.656 -3.528,1.312 -6.399,1.312 -4.923,0 -7.631,-2.707 -7.631,-9.435 l 0,-25.434 -3.035,0 c -4.923,0 -8.041,2.461 -8.041,7.056 l 0,20.347 c 0,8.862 4.676,17.312 16.327,17.312 6.809,0 9.189,-3.856 9.189,-7.22 L 0.41,0 0,0 z"
             style="fill:#000000;fill-opacity:1;fill-rule:nonzero;stroke:none"
             id="path40"
             inkscape:connector-curvature="0" /></g><g
           id="g42"
           transform="translate(350.922,232.7522)"><path
             d="m 0,0 c -5.333,0 -9.025,-4.349 -9.272,-9.436 l -0.082,-1.476 4.923,0 c 10.42,0 12.799,1.148 12.799,4.266 C 8.368,-2.215 5.087,0 0,0 m -2.052,-18.706 -7.22,0 c 0.821,-5.58 5.908,-9.108 12.389,-9.108 4.595,0 10.01,0.903 13.538,4.185 l 0.41,0 0,-3.447 c 0,-5.661 -3.856,-10.009 -15.999,-10.009 -10.994,0 -21.742,8.697 -21.742,22.234 0,14.769 9.025,24.04 21.66,24.04 9.19,0 17.722,-6.563 17.722,-17.147 0,-8.123 -6.153,-10.748 -20.758,-10.748"
             style="fill:#000000;fill-opacity:1;fill-rule:nonzero;stroke:none"
             id="path44"
             inkscape:connector-curvature="0" /></g><g
           id="g46"
           transform="translate(399.3273,245.8797)"><path
             d="m 0,0 c -1.723,0.574 -3.692,0.984 -6.399,0.984 -4.513,0 -7.877,-1.558 -7.877,-7.466 l 0,-3.938 12.635,0 0,-3.036 c 0,-3.938 -4.184,-6.235 -7.877,-6.235 l -4.758,0 0,-29.537 -4.431,0 c -3.527,0 -6.646,2.707 -6.646,6.563 l 0,37.086 c 0,6.235 4.349,16.245 17.23,16.245 4.759,0 8.451,-2.626 8.451,-6.974 L 0.328,0 0,0 z"
             style="fill:#000000;fill-opacity:1;fill-rule:nonzero;stroke:none"
             id="path48"
             inkscape:connector-curvature="0" /></g><g
           id="g50"
           transform="translate(205.1129,182.7385)"><path
             d="m 0,0 c -0.69,0.23 -1.478,0.394 -2.563,0.394 -1.806,0 -3.153,-0.624 -3.153,-2.989 l 0,-1.577 5.059,0 0,-1.216 c 0,-1.577 -1.676,-2.497 -3.154,-2.497 l -1.905,0 0,-11.826 -1.774,0 c -1.413,0 -2.661,1.084 -2.661,2.628 l 0,14.849 c 0,2.497 1.741,6.505 6.899,6.505 1.905,0 3.383,-1.052 3.383,-2.793 L 0.131,0 0,0 z"
             style="fill:#dc1212;fill-opacity:1;fill-rule:nonzero;stroke:none"
             id="path52"
             inkscape:connector-curvature="0" /></g><g
           id="g54"
           transform="translate(212.8341,162.863)"><path
             d="m 0,0 c -3.646,0 -5.618,1.938 -5.618,5.519 l 0,18.299 1.248,0 c 2.202,0 3.154,-1.281 3.154,-2.957 l 0,-14.915 c 0,-1.774 0.92,-2.332 2.99,-2.332 l 1.183,0 0,-0.953 C 2.957,0.755 1.938,0 0,0"
             style="fill:#dc1212;fill-opacity:1;fill-rule:nonzero;stroke:none"
             id="path56"
             inkscape:connector-curvature="0" /></g><g
           id="g58"
           transform="translate(218.8795,157.2781)"><path
             d="m 0,0 c -1.643,0 -3.088,1.084 -3.088,2.726 l 0,0.855 2.497,0.164 C 1.019,3.844 1.577,4.5 2.53,6.997 0.197,10.513 -3.154,19.317 -3.745,23.489 l 2.332,0 c 1.216,0 2.333,-0.821 2.563,-2.07 0.624,-3.416 1.938,-7.096 3.548,-10.216 1.445,3.317 3.055,8.672 3.449,12.286 l 1.906,0 c 1.412,0 2.07,-0.624 2.07,-2.07 0,-1.872 -3.089,-9.954 -3.91,-11.859 C 4.928,1.807 3.186,0 0,0"
             style="fill:#dc1212;fill-opacity:1;fill-rule:nonzero;stroke:none"
             id="path60"
             inkscape:connector-curvature="0" /></g><g
           id="g62"
           transform="translate(238.6578,162.863)"><path
             d="m 0,0 c -3.417,0 -5.289,1.938 -5.289,5.519 l 0,11.991 1.249,0 c 1.971,0 3.153,-1.052 3.153,-3.285 l 0,-8.279 c 0,-1.774 0.756,-2.332 2.694,-2.332 l 0.822,0 0,-0.953 C 2.629,0.755 1.873,0 0,0 m -3.121,19.153 c -1.412,0 -2.562,1.182 -2.562,2.595 0,1.413 1.15,2.563 2.562,2.563 1.413,0 2.596,-1.15 2.596,-2.563 0,-1.413 -1.183,-2.595 -2.596,-2.595"
             style="fill:#dc1212;fill-opacity:1;fill-rule:nonzero;stroke:none"
             id="path64"
             inkscape:connector-curvature="0" /></g><g
           id="g66"
           transform="translate(257.3517,163.0271)"><path
             d="m 0,0 c -1.972,0 -3.22,1.249 -3.22,2.891 l 0,7.03 c 0,2.99 -1.314,4.304 -3.581,4.304 -1.905,0 -3.218,-1.446 -3.218,-3.975 l 0,-10.25 -1.315,0 c -1.873,0 -3.088,1.249 -3.088,2.891 l 0,7.654 c 0,3.745 2.464,7.589 7.983,7.589 4.172,0 7.622,-2.792 7.622,-7.819 L 1.183,0 0,0 z"
             style="fill:#dc1212;fill-opacity:1;fill-rule:nonzero;stroke:none"
             id="path68"
             inkscape:connector-curvature="0" /></g><g
           id="g70"
           transform="translate(265.4679,172.6858)"><path
             d="m 0,0 c 0,-2.3 1.413,-4.008 3.515,-4.008 2.201,0 3.778,1.642 3.778,4.468 0,2.759 -1.38,4.106 -3.318,4.106 C 1.708,4.566 0,2.661 0,0 m 11.761,-4.698 c 0.033,-0.723 0.066,-1.676 0.066,-2.267 0,-4.435 -2.957,-8.41 -8.674,-8.41 -3.646,0 -6.142,1.774 -6.142,3.876 l 0,2.004 0.197,0 c 1.051,-1.116 3.088,-1.905 5.617,-1.905 3.187,0 4.632,1.511 4.632,4.074 0,0.262 0,0.624 -0.032,0.92 0,0.262 -0.033,0.722 -0.033,0.886 l 0,0.428 C 7.03,-6.374 5.354,-7.72 2.825,-7.72 c -4.304,0 -7.358,2.989 -7.358,7.161 0,4.994 3.285,9.035 9.001,9.035 4.402,0 7.227,-3.22 7.227,-7.753 l 0,-3.023 c 0,-0.591 0.033,-1.61 0.066,-2.398"
             style="fill:#dc1212;fill-opacity:1;fill-rule:nonzero;stroke:none"
             id="path72"
             inkscape:connector-curvature="0" /></g><g
           id="g74"
           transform="translate(294.4113,177.449)"><path
             d="m 0,0 c -2.234,0 -3.68,-2.168 -3.68,-5.026 0,-3.68 1.905,-6.078 4.436,-6.078 2.464,0 3.548,1.84 3.548,5.06 C 4.304,-1.609 2.365,0 0,0 m 0.229,-14.816 c -4.665,0 -8.245,4.073 -8.245,8.936 0,5.815 2.826,9.592 7.983,9.592 1.774,0 3.713,-1.248 4.402,-2.792 l 0,8.312 1.347,0 c 2.102,0 3.022,-1.216 3.022,-2.99 l 0,-12.484 c 0,-5.157 -2.43,-8.574 -8.509,-8.574"
             style="fill:#dc1212;fill-opacity:1;fill-rule:nonzero;stroke:none"
             id="path76"
             inkscape:connector-curvature="0" /></g><g
           id="g78"
           transform="translate(313.3361,177.219)"><path
             d="m 0,0 c -2.529,0 -3.811,-2.102 -3.811,-5.026 0,-3.515 1.282,-5.618 4.206,-5.618 2.562,0 3.81,2.103 3.81,4.994 C 4.205,-2.102 2.891,0 0,0 m 0.395,3.942 c 5.321,0 8.376,-4.27 8.376,-8.968 0,-5.322 -3.055,-9.56 -8.771,-9.56 -5.322,0 -8.377,4.238 -8.377,8.936 0,5.322 3.055,9.592 8.772,9.592"
             style="fill:#dc1212;fill-opacity:1;fill-rule:nonzero;stroke:none"
             id="path80"
             inkscape:connector-curvature="0" /></g><g
           id="g82"
           transform="translate(338.1407,175.051)"><path
             d="m 0,0 c -0.592,1.019 -2.267,1.84 -4.797,1.84 -2.561,0 -4.829,-2.07 -4.829,-4.698 0,-3.22 1.905,-5.421 4.896,-5.421 2.529,0 4.041,0.822 4.665,1.643 l 0.164,0 0,-2.037 c 0,-2.136 -2.07,-3.679 -5.257,-3.679 -4.862,0 -9.067,3.778 -9.067,8.837 0,5.059 3.515,9.395 9.56,9.395 2.825,0 4.829,-1.708 4.829,-3.81 L 0.164,0 0,0 z"
             style="fill:#dc1212;fill-opacity:1;fill-rule:nonzero;stroke:none"
             id="path84"
             inkscape:connector-curvature="0" /></g><g
           id="g86"
           transform="translate(342.1173,183.5598)"><path
             d="m 0,0 c 0.591,0.69 1.38,1.215 2.069,1.215 l 1.019,0 0,-4.007 6.144,0 0,-1.808 c 0,-0.919 -0.822,-2.102 -2.628,-2.102 l -3.516,0 0,-6.932 c 0,-2.3 1.019,-3.186 2.793,-3.186 1.412,0 2.496,0.196 3.186,0.624 l 0.165,0 0,-1.577 c 0,-1.807 -1.315,-2.957 -3.877,-2.957 -4.468,0 -6.636,2.431 -6.636,6.571 l 0,10.644 c 0,1.741 0.328,2.398 1.281,3.515"
             style="fill:#dc1212;fill-opacity:1;fill-rule:nonzero;stroke:none"
             id="path88"
             inkscape:connector-curvature="0" /></g><g
           id="g90"
           transform="translate(360.712,177.219)"><path
             d="m 0,0 c -2.529,0 -3.811,-2.102 -3.811,-5.026 0,-3.515 1.282,-5.618 4.206,-5.618 2.562,0 3.81,2.103 3.81,4.994 C 4.205,-2.102 2.891,0 0,0 m 0.395,3.942 c 5.321,0 8.376,-4.27 8.376,-8.968 0,-5.322 -3.055,-9.56 -8.771,-9.56 -5.322,0 -8.377,4.238 -8.377,8.936 0,5.322 3.055,9.592 8.772,9.592"
             style="fill:#dc1212;fill-opacity:1;fill-rule:nonzero;stroke:none"
             id="path92"
             inkscape:connector-curvature="0" /></g><g
           id="g94"
           transform="translate(382.1661,176.4636)"><path
             d="m 0,0 c -0.657,0.263 -1.413,0.526 -2.563,0.526 -1.971,0 -3.055,-1.085 -3.055,-3.778 l 0,-10.184 -1.216,0 c -1.974,-0.735 -3.221,0.503 -3.219,2.825 l 0,8.147 c 0,3.548 1.872,6.932 6.537,6.932 2.727,0 3.68,-1.544 3.68,-2.891 L 0.164,0 0,0 z"
             style="fill:#dc1212;fill-opacity:1;fill-rule:nonzero;stroke:none"
             id="path96"
             inkscape:connector-curvature="0" /></g><g
           id="g98"
           transform="translate(389.3282,162.6331)"><path
             d="m 0,0 c -3.252,0 -5.684,1.675 -5.684,3.482 l 0,2.004 0.164,0 c 0.954,-0.887 3.22,-1.675 5.323,-1.675 2.168,0 3.219,0.624 3.219,1.938 0,1.019 -0.624,1.511 -3.679,1.938 -3.745,0.526 -5.552,2.004 -5.552,4.698 0,3.318 2.989,6.143 7.524,6.143 4.007,0 5.65,-2.069 5.65,-3.777 l 0,-1.676 -0.164,0 c -0.92,0.92 -2.957,1.643 -5.06,1.643 -2.694,0 -3.548,-0.822 -3.548,-1.972 0,-0.887 0.526,-1.248 3.548,-1.741 C 5.421,10.414 7.392,8.804 7.392,5.979 7.392,2.234 4.764,0 0,0"
             style="fill:#dc1212;fill-opacity:1;fill-rule:nonzero;stroke:none"
             id="path100"
             inkscape:connector-curvature="0" /></g></g></g></g></svg>